<?xml version="1.0" encoding="UTF-8"?>
<svg version="1.1" viewBox="0 0 1600 456" width="1280" height="1280" xmlns="http://www.w3.org/2000/svg">
<path transform="translate(247 -.188)" d="m0 0c1.58-0.0184 1.58-0.0184 3.2-0.0371 7.37-0.0135 14.3 0.794 21.6 2.22 0.33-0.66 0.66-1.32 1-2 0.33 0.66 0.66 1.32 1 2 2.11 0.36 2.11 0.36 4.69 0.438 9.78 0.726 19.3 2.78 28.3 6.56 1.12 0.433 2.24 0.866 3.39 1.31 35.6 13.8 68.8 38.5 88.6 71.7 0.68 2.27 0.68 2.27 1 4h2c7.43 12.9 13.4 25.8 18 40 0.393 1.22 0.786 2.44 1.19 3.7 2.17 7.17 3.53 14.2 4.41 21.6 0.111 2.58 0.111 2.58 1.39 3.67 1.27 7.97 1.15 16 1.13 24-0.00534 2.33-3.85e-5 4.67 0.00635 7 0.00553 11.2-0.458 22-3.14 33-0.24 1.08-0.48 2.16-0.727 3.27-0.383 1.72-0.383 1.72-0.773 3.48l-0.719 3.23c-0.727 2.81-1.68 5.34-2.78 8.02-0.455 1.49-0.892 3-1.31 4.5-10.6 35.9-32.3 70.4-55.9 99.3-1.6 1.99-3.11 4.02-4.6 6.09-3.5 4.72-7.54 8.96-11.5 13.3-2.07 2.24-4.1 4.5-6.09 6.81-10.3 11.8-21.2 22.9-32.3 33.9-2.56 2.56-5.12 5.12-7.67 7.68-1.65 1.65-3.3 3.3-4.95 4.95-0.752 0.754-1.5 1.51-2.28 2.29-4.12 4.1-8.32 8.03-12.7 11.8-2.57 2.24-4.88 4.69-7.22 7.16-1.45 1.29-1.45 1.29-3.45 1.29-0.211 0.565-0.423 1.13-0.641 1.71-1.85 3.12-4.21 4.75-7.11 6.91-1.03 0.776-2.05 1.55-3.11 2.35-5.28 3.4-9.65 4.59-15.8 3.67-8.66-2.4-15.3-10-21.6-16-1.84-1.74-3.7-3.46-5.56-5.19-7.31-6.78-14.5-13.7-21.5-20.8-2.54-2.58-5.09-5.04-7.9-7.33-2.24-1.86-4.04-3.57-5.86-5.82-2.47-3.03-5.15-5.75-7.94-8.5-15.6-15.4-15.6-15.4-20.4-21.1-1.94-2.28-3.95-4.48-5.97-6.69-23.2-25.7-43.5-55-58.6-86.2-0.625-1.21-1.25-2.42-1.88-3.62-5.29-10.7-9.7-21.4-13.1-32.8-0.838-2.81-1.75-5.55-2.75-8.3-1.8-5.27-2.52-10.8-3.31-16.2h-1c-1.77-16.8-2.2-33.1-1-50 0.0649-0.976 0.13-1.95 0.197-2.96 0.383-5.01 1.03-9.3 2.8-14 0.506-2.31 0.984-4.62 1.44-6.94 1.06-5.1 2.32-9.39 4.56-14.1l1.38-3.69c5.77-15.4 12.8-30.1 22.6-43.3 1.19-1.73 2.38-3.46 3.56-5.19 2.93-4.18 5.95-8.08 9.44-11.8h2l0.562-2.12c2-4.01 4.97-6.13 8.44-8.88 0.99-0.825 1.98-1.65 3-2.5 0.99-0.825 1.98-1.65 3-2.5 0.614-0.543 1.23-1.09 1.86-1.64 0.624-0.55 1.25-1.1 1.89-1.67l1.73-1.55c1.52-1.14 1.52-1.14 3.52-1.14 0.33-0.99 0.66-1.98 1-3 2.62-1.72 2.62-1.72 5.88-3.5 4.09-2.15 4.09-2.15 7.63-5.03 2.19-2.16 4.72-3.16 7.49-4.47 1.21-0.618 2.42-1.24 3.63-1.87 8.3-4.25 16.6-7.95 25.4-11.1 1.31-0.538 1.31-0.538 2.65-1.09 10.7-4.27 22.3-5.9 33.8-6.7 2.05-0.167 4.1-0.428 6.13-0.723 5.56-0.708 11.1-0.672 16.7-0.676zm-25.2 53.2c-1.77 0.335-1.77 0.335-3.58 0.676-22.6 4.45-41.7 16-59.4 30.3-0.562 0.434-1.12 0.869-1.7 1.32-5.6 4.51-9.88 10-14.3 15.7-0.656 0.837-1.31 1.67-1.99 2.54-1.18 1.51-2.35 3.03-3.52 4.55-1.19 1.53-2.42 3.01-3.68 4.48-1.94 2.6-3.3 5.18-4.69 8.11-0.791 1.64-1.63 3.25-2.5 4.84-6.45 12-11 25.9-12.6 39.5l-0.332 2.74c-0.711 7.3-0.798 14.6-0.855 21.9-0.0196 1.44-0.0196 1.44-0.0396 2.92-0.00765 6.37 0.75 12.2 2.23 18.4l0.711 3.18c6.46 26.2 19.5 52 41.3 68.8h2c0.33 0.99 0.66 1.98 1 3 2.5 1.22 2.5 1.22 5 2v2c2.92 2.23 6.1 4.06 9.25 5.95 1.18 0.707 2.35 1.42 3.52 2.14 15.2 9.36 31.6 15.2 49.2 17.9 1.2 0.182 2.39 0.364 3.62 0.551 35.5 4.24 70.5-5.43 98.7-27.2 15.4-12.3 28.8-27.1 36.7-45.3v-2h2c2.75-6.57 5.07-13.1 7-20 0.269-0.922 0.539-1.84 0.816-2.79 0.267-0.935 0.534-1.87 0.809-2.83 0.24-0.838 0.48-1.68 0.727-2.54 1.46-6.38 1.81-12.7 1.82-19.2 0.00333-0.777 0.00666-1.55 0.0101-2.35 0.00503-1.64 0.00741-3.27 0.00725-4.91 0.00217-2.46 0.0203-4.91 0.0393-7.37 0.661-16.2 0.661-16.2-4.22-31-0.462-1.59-0.873-3.2-1.25-4.81-6.24-23.6-21.1-45.7-39.8-61.2-1.39-1.19-1.39-1.19-2.81-2.4-0.969-0.816-1.94-1.63-2.94-2.47l-2.73-2.3c-2.31-1.67-3.74-2.42-6.52-2.82v-2c-1.78-0.888-3.55-1.77-5.33-2.66-2-1-3.99-2.03-5.97-3.06-6-3.11-11.9-5.93-18.4-7.67-2.26-0.607-4.4-1.37-6.59-2.18-4.89-1.67-9.86-2.33-15-3.01-2.72-0.43-2.72-0.43-4.72-1.43-4.28-0.213-8.56-0.186-12.8-0.185-2.12-0.00216-4.24-0.0202-6.35-0.0393-7.49-0.0313-14.5 0.41-21.8 2.22zm-155 98 1 3zm-1 49 1 3z" fill="#FBFCFE"/>
<path transform="translate(517 94.8)" d="m0 0c1.16 0.00143 2.32 0.00285 3.51 0.00432 1.31-0.00308 2.63-0.00615 3.98-0.00932 1.44 0.00691 2.89 0.0142 4.33 0.0218 1.49 0.00119 2.97 0.00164 4.46 0.00139 3.13 0.00157 6.25 0.00987 9.38 0.0233 3.96 0.0168 7.93 0.0208 11.9 0.0201 3.08 2.75e-4 6.16 0.00582 9.23 0.013 1.46 0.00314 2.92 0.00514 4.38 0.00589 26.5 0.0286 54.8 2.66 75.2 21.7 15.8 16.7 22.3 35.6 22.1 58.7-0.539 13-2.68 26.4-9.16 37.8-0.416 0.775-0.833 1.55-1.26 2.35-4.06 7.5-4.06 7.5-6.74 10.7h-2c-0.211 0.566-0.423 1.13-0.641 1.71-1.85 3.11-4.2 4.71-7.11 6.85-1.03 0.764-2.05 1.53-3.11 2.32-2.96 2-5.91 3.61-9.14 5.12v5c0.66 0.33 1.32 0.66 2 1 1.33 2.17 2.59 4.33 3.81 6.56 0.716 1.28 1.43 2.56 2.15 3.83 0.348 0.62 0.696 1.24 1.05 1.88 3.48 6.24 3.48 6.24 7.98 11.7 3 5.54 3 5.54 3 8h2c0.385 0.731 0.385 0.731 0.777 1.48 2.96 5.48 6.23 10.7 9.63 15.9 3.31 5.1 6.44 10.3 9.5 15.5 1.63 2.76 3.3 5.31 5.31 7.82 1.96 2.47 2.43 4.15 2.79 7.24h2c3 4.38 3 4.38 3 7 0.66 0.33 1.32 0.66 2 1 0.625 2.56 0.625 2.56 1 5-30.8 2.66-30.8 2.66-38.6-1.31-3.8-3.61-5.51-8.22-7.32-13-2.09-4.93-5.22-9.25-8.18-13.7-1.2-1.88-2.4-3.76-3.59-5.64-0.856-1.35-0.856-1.35-1.73-2.73-2.28-3.62-4.55-7.25-6.81-10.9-4.7-7.55-9.53-15-14.4-22.5-1.52-2.34-3.03-4.68-4.54-7.03-0.505-0.784-1.01-1.57-1.53-2.38-0.975-1.51-1.95-3.03-2.92-4.54-2-3.3-2-3.3-4.44-6.27-1.35-0.0927-2.71-0.117-4.06-0.114-0.861 7.55e-5 -1.72 1.51e-4 -2.61 2.29e-4 -1.4 0.00774-1.4 0.00774-2.83 0.0156-1.43 0.00212-1.43 0.00212-2.89 0.00429-3.06 0.00562-6.11 0.0182-9.17 0.0309-2.07 0.00501-4.13 0.00958-6.2 0.0137-5.08 0.0111-10.2 0.0283-15.2 0.0488-2.06 3.4-2.24 5.99-2.21 9.93 0.00338 1.19 0.00676 2.39 0.0102 3.62 0.0135 1.29 0.0269 2.57 0.0408 3.9 0.00627 1.33 0.0115 2.67 0.0158 4 0.0133 3.51 0.0377 7.01 0.0654 10.5 0.038 4.95 0.0663 9.9 0.0877 14.9 0.0123 2.64 0.0299 5.27 0.0533 7.91 0.00653 1.19 0.0131 2.38 0.0198 3.6 0.00825 1.05 0.0165 2.1 0.025 3.18-0.107 2.49-0.107 2.49-1.11 4.49-0.153 1.81-0.249 3.63-0.316 5.45-0.0419 1.08-0.0838 2.15-0.127 3.26-0.0393 1.13-0.0786 2.26-0.119 3.42-0.0432 1.14-0.0864 2.27-0.131 3.44-0.106 2.81-0.208 5.62-0.307 8.43-1.57 0.166-3.15 0.33-4.72 0.492-1.31 0.137-1.31 0.137-2.66 0.277-7.41 0.653-15.3 0.615-22.6-0.769-1.14-2.27-1.13-3.5-1.13-6.02-0.00322-0.846-0.00645-1.69-0.00977-2.56 0.00155-0.934 0.0031-1.87 0.00469-2.83-0.00227-0.989-0.00453-1.98-0.00687-3-0.00636-3.33-0.00551-6.67-0.00469-10-0.00299-2.38-0.00639-4.76-0.0102-7.14-0.00794-5.81-0.0111-11.6-0.0116-17.4-4.75e-4 -4.72-0.00253-9.44-0.0057-14.2-0.00881-13.4-0.0134-26.7-0.0127-40.1 4e-5 -0.721 7.99e-5 -1.44 1.21e-4 -2.19 4.09e-5 -0.722 8.18e-5 -1.44 1.24e-4 -2.19 4.07e-4 -11.7-0.00917-23.4-0.0233-35.1-0.0143-12-0.0213-24-0.0204-36 3.33e-4 -6.75-0.00244-13.5-0.0132-20.2-0.00964-6.34-0.00979-12.7-0.00248-19 0.00105-2.33-0.00135-4.67-0.00736-7-0.00765-3.17-0.00312-6.35 0.00463-9.52-0.00514-0.934-0.0103-1.87-0.0156-2.83 0.0046-0.846 0.0092-1.69 0.0139-2.56-2.17e-4 -0.733-4.35e-4 -1.47-6.59e-4 -2.22 0.452-3.26 1.88-3.76 4.97-4.05zm27.3 34.2c-0.253 2.63-0.328 5-0.25 7.62 0.011 0.741 0.0219 1.48 0.0332 2.25 0.156 8.05 0.654 16.1 1.22 24.1h-2c-0.219 23.6-0.219 23.6 0.438 47.1 0.0392 0.809 0.0785 1.62 0.119 2.45-0.0827 3.51-0.0827 3.51 1.44 6.42 1.47 0.109 2.95 0.149 4.42 0.161 0.942 0.00961 1.88 0.0192 2.86 0.0291 1.03 0.00425 2.06 0.0085 3.12 0.0129 1.06 0.0057 2.12 0.0114 3.21 0.0173 2.25 0.00947 4.5 0.016 6.75 0.0198 3.41 0.00962 6.82 0.0406 10.2 0.0723 2.19 0.00654 4.38 0.0118 6.57 0.0156 1.01 0.0123 2.01 0.0247 3.05 0.0374 13.2-0.0406 24.8-3.57 34.8-12.4 7.82-10.6 11.2-19.2 11.2-32.2 0.0122-0.895 0.0245-1.79 0.0371-2.71 0.0135-6.25-0.775-12-2.22-18.1h-2c-0.157-1.09-0.157-1.09-0.316-2.2-0.747-3.06-1.86-5.02-3.62-7.61-0.525-0.79-1.05-1.58-1.59-2.39-0.486-0.592-0.972-1.18-1.47-1.79h-2c-0.247-0.639-0.495-1.28-0.75-1.94-1.07-2.25-1.07-2.25-3.38-2.81-0.619-0.0825-1.24-0.165-1.88-0.25v-2c-0.771-0.349-1.54-0.699-2.34-1.06-1-0.455-2.01-0.91-3.04-1.38-0.998-0.452-2-0.905-3.02-1.37-1.54-0.707-3.08-1.43-4.6-2.19-6.34-1.09-12.8-1.17-19.2-1.2-0.935-0.0057-1.87-0.0114-2.83-0.0173-1.96-0.00938-3.92-0.016-5.87-0.0198-3-0.00981-6-0.0409-9-0.0723-1.91-0.00652-3.82-0.0118-5.73-0.0156-0.897-0.0123-1.79-0.0247-2.72-0.0374-0.832 3e-3 -1.66 6e-3 -2.52 0.00909-0.73-0.00365-1.46-0.00729-2.21-0.011-2.53 0.481-3.41 1.32-4.93 3.37z" fill="#FBFCFE"/>
<path transform="translate(246,138)" d="m0 0c4.28 2.06 7.75 4.4 10.7 8.19 2.91 3.58 6.12 6.77 9.39 10 0.678 0.676 1.36 1.35 2.05 2.05 2.15 2.15 4.31 4.29 6.47 6.44 1.46 1.45 2.92 2.91 4.38 4.36 3.2 3.19 6.4 6.38 9.61 9.57 2.02 2.01 3.89 3.99 5.7 6.2 2.13 2.52 4.37 4.88 6.73 7.19 0.556 0.544 1.11 1.09 1.69 1.65 1.11 1.08 2.22 2.14 3.34 3.2 5.98 5.82 12.1 12.1 12.8 20.7 0.0189 2-3.37e-4 4-0.0532 6-0.00418 1.6-0.00418 1.6-0.00845 3.23-0.0127 2.23-0.0422 4.47-0.0877 6.7-0.0682 3.43-0.082 6.85-0.0874 10.3-0.019 2.18-0.041 4.36-0.0664 6.53-0.00648 1.02-0.013 2.05-0.0196 3.11-0.0224 0.949-0.0447 1.9-0.0678 2.87-0.0145 0.834-0.0289 1.67-0.0438 2.53-0.503 2.66-1.28 3.53-3.41 5.15-2.72 0.908-4.41 1.14-7.22 1.19-0.848 0.0161-1.7 0.0321-2.57 0.0487-3.86 0.0445-7.72 0.0855-11.6 0.109-2.04 0.0166-4.08 0.0439-6.11 0.082-2.94 0.0547-5.88 0.0766-8.82 0.0913-0.911 0.0227-1.82 0.0453-2.76 0.0687-4.01-0.0134-6.21-0.0609-9.5-2.48-2.07-4.5-2.04-8.55-2.04-13.4-0.0165-0.992-0.0331-1.98-0.0501-3.01-0.0485-3.16-0.0698-6.32-0.0905-9.48-0.0282-2.15-0.0581-4.29-0.0898-6.44-0.0739-5.25-0.126-10.5-0.16-15.8-4.65 0.0936-9.29 0.2-13.9 0.317-1.58 0.0383-3.16 0.0731-4.74 0.104-2.27 0.0457-4.54 0.104-6.81 0.164-0.706 0.0116-1.41 0.0231-2.14 0.035-3.65 0.11-5.25 0.3-8.37 2.38-0.475 2.05-0.475 2.05-0.432 4.45-0.0198 0.921-0.0396 1.84-0.06 2.79-0.00958 1.49-0.00958 1.49-0.0194 3.02-0.018 1.02-0.0359 2.04-0.0544 3.09-0.0543 3.26-0.0881 6.52-0.121 9.78-0.0332 2.21-0.0676 4.41-0.104 6.62-0.0851 5.42-0.153 10.8-0.209 16.3-2.29 1.15-3.64 1.15-6.19 1.19-0.865 0.0161-1.73 0.0321-2.62 0.0487-3.96 0.0445-7.91 0.0855-11.9 0.109-2.09 0.0166-4.17 0.0439-6.26 0.082-3.01 0.0548-6.01 0.0766-9.02 0.0913-0.93 0.0227-1.86 0.0453-2.82 0.0687-4.65-0.0151-6.56-0.0568-10.3-3.06-0.638-0.835-1.28-1.67-1.93-2.53-0.33-0.33-0.66-0.66-1-1-0.109-1.48-0.149-2.96-0.161-4.44-0.00961-0.945-0.0192-1.89-0.0291-2.86-0.00425-1.03-0.0085-2.06-0.0129-3.12-0.0057-1.05-0.0114-2.1-0.0173-3.19-0.00947-2.23-0.016-4.47-0.0198-6.7-0.00969-3.41-0.0407-6.83-0.0723-10.2-0.00653-2.17-0.0118-4.33-0.0156-6.5-0.0123-1.02-0.0247-2.04-0.0374-3.09 0.0277-8.82 0.0277-8.82 3.37-12.9 1.8-1.74 1.8-1.74 3.75-3.31 3.7-3.1 6.76-6.45 9.8-10.2 0.477-0.496 0.954-0.993 1.45-1.5h2c0.227-0.536 0.454-1.07 0.688-1.62 2.6-4.7 6.01-8.19 10.1-11.6 5.6-4.78 10.3-10.3 15.1-15.9 3.52-4.12 7.18-7.74 11.3-11.2 1.53-1.32 2.98-2.72 4.4-4.15 3-3 6.19-5.72 9.44-8.44z" fill="#FBFCFE"/>
<path transform="translate(1329 208)" d="m0 0c2.45 2.15 4.73 4.36 6.98 6.72 0.57 0.585 1.14 1.17 1.73 1.77 8.24 9 17.7 24.5 18.5 36.9-0.0825 0.784-0.165 1.57-0.25 2.38-5.42 2.96-10.5 4.77-16.5 6.29-3.07 0.868-5.7 2.24-8.53 3.71-4.01 1.51-8.12 2.73-12.2 3.97-1.12 0.339-2.25 0.678-3.4 1.03-1.04 0.309-2.09 0.619-3.16 0.938-2.83 0.936-5.5 2.05-8.22 3.25-4.06 1.67-8.25 2.96-12.4 4.32-6.24 2.04-12.4 4.15-18.6 6.5-1.31 0.49-2.62 0.978-3.93 1.46-7.39 2.76-14.8 5.55-22.1 8.54 0.739 3.34 1.43 4.71 4 7 0.706 0.771 1.41 1.54 2.14 2.34 9.3 8.66 22.2 12.7 34.8 12.6 11.9-0.736 21.7-5.52 32.1-11 11.7 16.2 11.7 16.2 13 24-24.5 12.9-48.6 18.2-75.6 10.1-8.5-2.77-15.2-6.72-22.4-12.1-0.567-0.423-1.13-0.846-1.72-1.28-6.95-5.47-13.1-12.9-17.3-20.7v-3h-2c-0.266-0.88-0.531-1.76-0.805-2.67-0.353-1.16-0.706-2.32-1.07-3.52-0.348-1.15-0.696-2.3-1.05-3.48-0.913-2.84-1.96-5.56-3.07-8.33-4.11-19.3 0.676-38.6 11-55 1.88-2.77 3.89-5.4 6-8 0.562-0.721 1.12-1.44 1.7-2.18 12.3-14.9 31.3-23.4 50.2-25.6 18.8-1.78 36.8 1.53 52.1 13.1zm-80.4 27.1c-8.96 11.5-11.3 25.3-10.6 39.6 4.63 1.47 7.81 0.301 12.1-1.46 1.03-0.402 1.03-0.402 2.08-0.813 1.47-0.576 2.94-1.16 4.4-1.75 3.84-1.54 7.7-3.04 11.6-4.55 0.765-0.3 1.53-0.599 2.32-0.908 6.25-2.44 12.5-4.69 18.9-6.83 10.4-3.52 20.5-7.52 30.6-11.7-0.82-7.93-3.99-13.6-10-18.9-2.96-2.1-5.67-3.69-9-5.12-0.599-0.28-1.2-0.559-1.82-0.848-17.8-7.26-38-0.321-50.6 13.2zm-40.6 39.6 1 4z" fill="#FAFBFD"/>
<path transform="translate(839 207)" d="m0 0c3.41 2.86 6.17 6.2 8.97 9.65l2 2c4 5.65 4 5.65 4 8h2c10.7 20.5 10.7 20.5 10 29-5.5 3.47-10.8 5.27-17 7-8.5 2.42-8.5 2.42-16.8 5.56-4 1.77-8.09 3.1-12.2 4.44-7.72 2.52-15.4 5.25-23 8-2.33 0.834-4.67 1.67-7 2.5-1.15 0.413-2.3 0.825-3.49 1.25-2.36 0.84-4.72 1.67-7.08 2.5-7.59 2.67-15 5.57-22.4 8.75 1.59 4.44 3.19 6.19 7 9 0.594 0.636 1.19 1.27 1.8 1.93 8.96 8.45 22.3 11.1 34.2 11.1 9.37-0.984 17-4.11 25.1-8.57 2.86-1.43 2.86-1.43 5.86-1.43 1.75 2.34 1.75 2.34 3.56 5.38 2.4 4.06 2.4 4.06 5.44 7.62 2.12 3.74 3 5.63 3 10-23.3 12.1-48.8 18.8-74.8 10.8-1.41-0.546-2.81-1.13-4.19-1.75-0.953-0.423-1.91-0.846-2.89-1.28-6.74-3.18-12.4-6.93-18.1-11.7-0.815-0.608-1.63-1.22-2.47-1.84-2.85-2.43-4.88-5.01-7.09-8.03-0.744-1.01-1.49-2.02-2.25-3.05-3.55-4.99-6.62-9.58-8.81-15.3-0.405-1.04-0.81-2.07-1.23-3.14-6.66-20.9-3.87-42 5.86-61.3 1.99-3.78 4.23-7.06 6.99-10.3 0.411-0.55 0.822-1.1 1.25-1.67 8.19-10.4 19.8-17 31.8-22.3 0.715-0.338 1.43-0.675 2.17-1.02 21.6-9.3 51.1-4.82 69.9 8.38zm-81.6 30.4c-8.42 11.1-9.89 23.6-9.46 37.2 4.37 1.28 6.89 0.644 11.1-0.957 1.2-0.448 2.4-0.896 3.63-1.36 1.3-0.499 2.59-0.998 3.89-1.5 1.35-0.507 2.69-1.01 4.04-1.52 2.76-1.04 5.53-2.08 8.29-3.13 4.9-1.86 9.82-3.67 14.7-5.48 12.5-4.59 24.9-9.29 37.3-14.1 0.605-5.87-2.36-8.86-5.79-13.3-5.87-7.04-13-12.3-22.2-13.7-19-0.999-32.6 3.04-45.5 17.8z" fill="#FAFBFD"/>
<path transform="translate(995 196)" d="m0 0c1.55-0.0309 1.55-0.0309 3.13-0.0625 12.2-0.0613 21.1 3.07 30.1 11.3 11.1 12.5 13.2 23.5 13.1 39.7 1.46e-4 1.03 2.92e-4 2.05 4.43e-4 3.11-6.92e-4 3.36-0.00845 6.72-0.0163 10.1-0.00187 2.34-0.00329 4.68-0.00429 7.02-0.0038 6.14-0.0136 12.3-0.0247 18.4-0.0103 6.27-0.0148 12.5-0.0198 18.8-0.0107 12.3-0.0283 24.6-0.0488 36.9h-30c-1.55-3.11-1.17-6.41-1.19-9.82-0.0124-1.21-0.0124-1.21-0.0251-2.45-0.0174-1.76-0.0326-3.52-0.0458-5.28-0.021-2.8-0.0481-5.59-0.0767-8.39-0.0598-5.96-0.112-11.9-0.163-17.9-0.0595-6.87-0.122-13.7-0.192-20.6-0.0263-2.74-0.0473-5.47-0.068-8.21 0.624-17.8 0.624-17.8-4.24-34.4-0.577-1.05-1.15-2.1-1.75-3.19-3.79-4.74-8.25-6.89-14.2-7.81-11.2-0.754-21.1 0.806-30.2 7.69-1.75 1.31-1.75 1.31-3.75 1.31-0.247 0.722-0.495 1.44-0.75 2.19-1.37 3.09-3.09 5.21-5.25 7.81-13.8 18.6-10.2 44.9-10.5 66.8-0.0509 3.63-0.106 7.27-0.161 10.9-0.106 7.09-0.208 14.2-0.307 21.3-5.06 0.765-9.95 1.15-15.1 1.12-1.02 0.0058-1.02 0.0058-2.06 0.0117-4.05-0.00779-7.92-0.187-11.9-1.14-1.3-2.6-1.13-4.48-1.13-7.39-0.00282-1.14-0.00564-2.29-0.00854-3.47 0.00202-1.26 0.00405-2.52 0.00613-3.82-0.00135-1.34-0.00313-2.67-0.00531-4.01-0.00457-3.64-0.00279-7.27 3.79e-4 -10.9 0.00253-3.8 1.85e-4 -7.6-0.00139-11.4-0.00182-6.38 5.82e-4 -12.8 0.00534-19.1 0.00544-7.39 0.00368-14.8-0.00183-22.2-0.00453-6.33-0.00518-12.7-0.00256-19 0.00156-3.79 0.00176-7.57-0.00154-11.4-0.00288-3.56-8.97e-4 -7.12 0.00489-10.7 0.00196-1.93-0.00102-3.87-0.00413-5.8 0.00423-1.72 0.00423-1.72 0.00854-3.47 3.77e-4 -0.998 7.54e-4 -2 0.00114-3.03 0.126-2.36 0.126-2.36 1.13-4.36 4.12-0.0289 8.25-0.0468 12.4-0.0625 1.76-0.0126 1.76-0.0126 3.56-0.0254 1.68-0.00483 1.68-0.00483 3.4-0.00977 1.56-0.00786 1.56-0.00786 3.14-0.0159 2.52 0.114 2.52 0.114 4.52 1.11 0.411 2.22 0.411 2.22 0.633 5.13 0.126 1.55 0.126 1.55 0.254 3.13 0.0786 1.09 0.157 2.18 0.238 3.3 0.0864 1.09 0.173 2.18 0.262 3.31 0.213 2.71 0.417 5.42 0.613 8.13 3.38-1.13 3.71-1.68 5.62-4.5 7.87-10.7 16.4-16.2 28.4-21.5 0.861-0.383 1.72-0.766 2.61-1.16 6.53-2.3 13.3-2.06 20.1-2.09z" fill="#FBFCFE"/>
<path transform="translate(1386,187)" d="m0 0c3.48-0.0289 6.96-0.0468 10.4-0.0625 1.49-0.0126 1.49-0.0126 3.01-0.0254 0.944-0.00322 1.89-0.00645 2.86-0.00977 1.31-0.00786 1.31-0.00786 2.65-0.0159 2.04 0.114 2.04 0.114 3.04 1.11 0.373 2.25 0.706 4.51 1.01 6.77 1.51 3.41 3.56 3.87 6.99 5.23 3.01 0.423 5.98 0.428 9.02 0.417 1.33 0.0129 1.33 0.0129 2.69 0.026 2.92 0.025 5.83 0.0294 8.75 0.034 2.03 0.0143 4.06 0.0301 6.09 0.0472 5.33 0.0418 10.7 0.0668 16 0.0875 8.55 0.0359 17.1 0.0966 25.7 0.158 2.99 0.0191 5.98 0.0308 8.98 0.0414 1.82 0.0102 3.64 0.0206 5.46 0.0311 0.838 0.00104 1.68 0.00208 2.54 0.00316 5.72 0.0411 5.72 0.0411 6.83 1.15 0.0406 1.67 0.0427 3.33 0 5-1.48 0.495-1.48 0.495-3 1-0.701 1.65-1.36 3.32-2 5-2.31 4.1-4.65 7.69-8 11-1.18 2.1-1.18 2.1-2 4h-2c-0.371 1.33-0.371 1.33-0.75 2.69-1.33 3.52-2.84 5.44-5.25 8.31-2.05 2.97-4.02 5.98-6 9-0.66 0.99-1.32 1.98-2 3h-2c-0.371 1.33-0.371 1.33-0.75 2.69-1.34 3.54-2.82 5.42-5.25 8.31-1.82 2.65-3.63 5.31-5.41 7.99-0.523 0.664-1.05 1.33-1.59 2.01h-2c-0.289 0.928-0.578 1.86-0.875 2.81-1.12 3.19-1.12 3.19-3.12 6.19h-2c-0.371 1.33-0.371 1.33-0.75 2.69-1.33 3.54-2.87 5.39-5.25 8.31-2.06 2.79-4.06 5.61-6.06 8.44-0.794 1.11-0.794 1.11-1.6 2.24-0.514 0.725-1.03 1.45-1.56 2.2-0.462 0.649-0.923 1.3-1.4 1.97-1.66 2.6-3 5.4-4.38 8.16 25.4 0.33 50.8 0.66 77 1-0.33 0.66-0.66 1.32-1 2-0.0845 1.74-0.107 3.48-0.0977 5.23 0.00322 1.03 0.00645 2.06 0.00977 3.12 0.00838 1.08 0.0168 2.16 0.0254 3.27 0.00451 1.09 0.00902 2.18 0.0137 3.3 0.0118 2.69 0.0283 5.39 0.0488 8.08-9.19 0.177-18.4 0.343-27.6 0.5-0.694 0.0119-1.39 0.0238-2.1 0.036-22.9 0.389-45.8 0.555-68.8 0.527-0.699-8.56e-4 -1.4-0.00171-2.12-0.00259-8.48-0.0112-17-0.0309-25.4-0.0599-1-3-1-3-0.211-4.69 0.418-0.6 0.836-1.2 1.27-1.82 0.45-0.658 0.9-1.32 1.36-1.99 0.721-1.02 0.721-1.02 1.46-2.06 0.936-1.35 1.87-2.71 2.8-4.07 0.63-0.898 0.63-0.898 1.27-1.81 1.12-1.59 1.12-1.59 2.05-3.56h2c0.211-0.655 0.423-1.31 0.641-1.98 1.87-4.14 4.45-7.6 7.11-11.3 1.09-1.52 2.18-3.04 3.26-4.56 0.778-1.09 0.778-1.09 1.57-2.2 3.25-4.57 6.39-9.19 9.17-14.1 0.619-0.959 0.619-0.959 1.25-1.94h2c0.289-0.742 0.578-1.49 0.875-2.25 1.64-4.01 3.07-6.69 6.12-9.75 1.18-2.1 1.18-2.1 2-4h2c0.375-1.07 0.375-1.07 0.758-2.16 1.37-3.12 3.06-5.5 5.12-8.21 3.04-4.09 5.73-8.13 8.12-12.6h2c0.258-0.723 0.516-1.45 0.781-2.19 1.66-3.83 4.07-6.88 6.56-10.2 1.78-2.79 2.66-5.45 3.66-8.6-0.648 0.00444-1.3 0.00888-1.96 0.0135-6.76 0.0443-13.5 0.0745-20.3 0.0964-2.52 0.01-5.05 0.0237-7.57 0.041-3.63 0.0243-7.26 0.0356-10.9 0.0444-1.12 0.0103-2.25 0.0206-3.4 0.0313-8.12 0.00116-14.4-0.277-20.6-6.04-0.737-0.666-1.47-1.33-2.23-2.02-5.95-6.4-6.18-12.6-6.14-20.9-0.00387-0.772-0.00773-1.54-0.0117-2.34 0.00999-5.72 0.00999-5.72 1.14-7.97z" fill="#FBFCFE"/>
<path transform="translate(247,85)" d="m0 0c1.06 0.893 2.13 1.79 3.19 2.69 0.592 0.499 1.18 0.998 1.79 1.51 6.03 5.38 11.4 11.5 16.9 17.4 3.92 4.21 7.95 8.12 12.4 11.8 2.44 2.19 4.44 4.65 6.46 7.22 1.39 1.66 1.39 1.66 4.32 2.38 0.66-2.97 1.32-5.94 2-9 3.62-0.0289 7.25-0.0468 10.9-0.0625 1.55-0.0126 1.55-0.0126 3.13-0.0254 0.986-0.00322 1.97-0.00645 2.99-0.00977 0.911-0.00524 1.82-0.0105 2.76-0.0159 2.25 0.114 2.25 0.114 4.25 1.11 0.00935 1.13 0.0187 2.26 0.0283 3.42 0.0399 4.2 0.106 8.39 0.179 12.6 0.0282 1.82 0.0494 3.63 0.0635 5.45 0.0214 2.61 0.0681 5.22 0.12 7.83 0.00184 1.22 0.00184 1.22 0.00372 2.46 0.0929 3.58 0.208 5.75 2.48 8.6l2.12 1.65c0.873 1.02 1.73 2.04 2.58 3.08 4.82 5.68 10.2 10.8 15.5 16 1.4 1.38 2.8 2.77 4.19 4.15 0.826 0.814 1.65 1.63 2.5 2.47 4.99 5.21 4.99 5.21 5.67 9.15-1 6.27-6.24 9.94-10.9 13.7-1.8 1.51-1.8 1.51-3.55 4.39-5.05-0.371-7.59-3.04-11-6.5-0.822-0.823-0.822-0.823-1.66-1.66-1.15-1.16-2.3-2.32-3.44-3.49-1.75-1.79-3.53-3.57-5.3-5.34-1.12-1.13-2.23-2.26-3.35-3.38-0.531-0.533-1.06-1.07-1.61-1.62-3.68-3.78-3.68-3.78-3.68-6.01-0.603-0.264-1.21-0.529-1.83-0.801-2.28-1.26-3.34-2.35-4.92-4.39-2.18-2.66-4.43-4.91-7.06-7.12-5.21-4.44-11.3-9.68-14.3-15.9-0.861-2.12-0.861-2.12-3.93-2.76-1.71-1.62-3.37-3.3-5-5-0.825-0.825-1.65-1.65-2.5-2.5-0.825-0.825-1.65-1.65-2.5-2.5-0.763-0.737-1.53-1.47-2.31-2.23-1.93-1.99-3.68-3.92-5.41-6.06-0.458-0.566-0.915-1.13-1.39-1.71-0.937-1.17-1.87-2.34-2.79-3.52-2.06-2.52-3.67-4.28-6.7-5.55-3.15 0.107-4.14 0.992-6.41 3.14-0.69 0.65-1.38 1.3-2.09 1.97-2.46 2.53-4.66 5.25-6.91 7.97-1.11 0.956-2.24 1.89-3.38 2.81-2.81 2.32-4.94 4.77-7.12 7.69-2.63 3.52-5.34 6.22-8.74 8.97-2.65 2.31-4.85 4.97-7.12 7.63-5.65 6.57-5.65 6.57-9.63 7.9-0.227 0.701-0.454 1.4-0.688 2.12-1.69 3.7-4.07 5.42-7.16 7.98-2.12 1.86-3.89 3.8-5.71 5.95-2.74 3.24-5.65 5.93-8.93 8.62-1.8 1.58-3.1 3.4-4.5 5.32h-2c-0.248 0.742-0.495 1.49-0.75 2.25-1.38 3.05-2.64 4.66-5.25 6.75-2.56 0.875-2.56 0.875-5 1-1.49-0.99-1.49-0.99-3-2v-2c-0.575-0.249-1.15-0.498-1.74-0.754-2.58-1.43-4.32-3.08-6.38-5.18-0.683-0.69-1.37-1.38-2.07-2.09-3.8-4.16-3.8-4.16-3.8-7.22 2.17-5.97 7.53-10.4 12-14.8 0.742-0.763 1.49-1.53 2.25-2.31 2.32-2.26 4.68-4.38 7.12-6.5 5.08-4.48 9.48-9.35 13.6-14.8 2.39-2.83 5.08-5.06 7.9-7.46 3.11-2.85 5.79-6.03 8.5-9.26 0.549-0.568 1.1-1.14 1.66-1.72h2c0.341-0.831 0.341-0.831 0.689-1.68 1.69-3 3.83-5.05 6.29-7.46 0.491-0.486 0.982-0.972 1.49-1.47 1.57-1.55 3.14-3.09 4.72-4.64 10.9-10.7 10.9-10.7 20.8-22.3 2.46-2.91 5.21-5.26 8.1-7.73 1.65-1.44 3.22-2.97 4.77-4.52 2.19-2.19 2.19-2.19 5.19-4.19z" fill="#FBFCFE"/>
<path transform="translate(1111,139)" d="m0 0c4.11-0.0247 8.22-0.0428 12.3-0.0549 1.4-0.00504 2.8-0.0119 4.2-0.0205 2.01-0.0121 4.02-0.0173 6.02-0.0222 1.81-0.00786 1.81-0.00786 3.67-0.0159 2.78 0.114 2.78 0.114 3.78 1.11 0.123 1.87 0.178 3.75 0.205 5.62 0.0299 1.8 0.0299 1.8 0.0604 3.64 0.0167 1.31 0.0334 2.61 0.0506 3.96 0.0206 1.34 0.0416 2.69 0.063 4.03 0.0553 3.54 0.105 7.09 0.153 10.6 0.0502 3.61 0.106 7.23 0.161 10.8 0.108 7.09 0.209 14.2 0.307 21.3 1.12 0.0251 2.23 0.0501 3.38 0.0759 4.12 0.0939 8.25 0.194 12.4 0.296 1.79 0.0434 3.58 0.0851 5.36 0.125 2.56 0.0576 5.13 0.121 7.69 0.186 0.804 0.0167 1.61 0.0334 2.44 0.0506 5.64 0.152 5.64 0.152 6.75 1.27 0.0871 1.71 0.107 3.42 0.0977 5.13-0.00483 1.55-0.00483 1.55-0.00977 3.13-0.0126 1.63-0.0126 1.63-0.0254 3.3-0.00451 1.09-0.00902 2.18-0.0137 3.31-0.0118 2.71-0.0283 5.42-0.0488 8.13-1.08 0.0146-2.16 0.0292-3.27 0.0442-4 0.0579-8 0.135-12 0.218-1.73 0.0333-3.46 0.0613-5.2 0.084-2.49 0.0335-4.97 0.0858-7.46 0.142-1.17 0.00958-1.17 0.00958-2.35 0.0194-2.42 0.032-2.42 0.032-5.72 0.492-2.12 3.18-2.25 3.97-2.28 7.61-0.0112 0.947-0.0223 1.89-0.0338 2.87-0.00216 1.04-0.00432 2.07-0.00655 3.14-0.0151 1.64-0.0151 1.64-0.0304 3.31-0.0309 3.62-0.0479 7.24-0.0648 10.9-0.0187 2.51-0.0383 5.01-0.0587 7.52-0.0462 5.93-0.0835 11.9-0.117 17.8-0.042 7.41-0.0975 14.8-0.153 22.2-0.0969 13.2-0.18 26.4-0.258 39.7h-30c-1.12-7.88-1.12-7.88-1.12-12-0.00137-0.927-0.00275-1.85-0.00417-2.81 0.0036-0.994 0.00719-1.99 0.0109-3.01-1.46e-4 -1.06-2.92e-4 -2.13-4.43e-4 -3.22 6.94e-4 -3.5 0.00846-7 0.0163-10.5 0.00187-2.43 0.00329-4.87 0.00429-7.3 0.00381-6.39 0.0136-12.8 0.0247-19.2 0.0102-6.53 0.0148-13.1 0.0198-19.6 0.0107-12.8 0.0283-25.6 0.0488-38.4h-25c-1.83-3.65-1.18-7.98-1.19-12-0.0122-0.928-0.0245-1.86-0.0371-2.81-0.00193-0.887-0.00387-1.77-0.00586-2.69-0.00411-0.815-0.00822-1.63-0.0125-2.47 0.243-2.03 0.243-2.03 2.24-4.03 2.43-0.227 2.43-0.227 5.45-0.195 1.61 0.00967 1.61 0.00967 3.26 0.0195 1.69 0.0251 1.69 0.0251 3.42 0.0508 1.7 0.0135 1.7 0.0135 3.44 0.0273 2.81 0.0236 5.62 0.0566 8.43 0.0977-0.00222-0.747-0.00444-1.49-0.00673-2.26-0.02-7.03-0.0353-14.1-0.0451-21.1-0.00522-3.62-0.0123-7.23-0.0236-10.8-0.0108-3.49-0.0168-6.98-0.0194-10.5-0.00275-1.98-0.0106-3.96-0.0184-5.95-1.13e-4 -1.8-1.13e-4 -1.8-2.29e-4 -3.64-0.00222-1.06-0.00444-2.12-0.00673-3.22 0.12-2.52 0.12-2.52 1.12-4.52z" fill="#FBFCFE"/>
<path transform="translate(1109,234)" d="m0 0h1v75h-1v-75z" fill="#FCFDFF"/>
<path transform="translate(544,164)" d="m0 0h1v34h-1v-34z" fill="#000002"/>
<path transform="translate(544,317)" d="m0 0h1v25h-1v-25z" fill="#000002"/>
<path transform="translate(1109,145)" d="m0 0h1v16h-1v-16z" fill="#FCFDFF"/>
<path transform="translate(1142,229)" d="m0 0h1v13h-1v-13z" fill="#000002"/>
<path transform="translate(545,255)" d="m0 0h1v9h-1v-9z" fill="#000002"/>
<path transform="translate(1508,201)" d="m0 0h3c-0.33 0.99-0.66 1.98-1 3-0.66-0.99-1.32-1.98-2-3z" fill="#000002"/>
<path transform="translate(114,195)" d="m0 0h1v6h-1v-6z" fill="#000002"/>
<path transform="translate(1109,329)" d="m0 0h1v5h-1v-5z" fill="#FCFDFF"/>
<path transform="translate(545,129)" d="m0 0h1v5h-1v-5z" fill="#000002"/>
<path transform="translate(219)" d="m0 0c0.33 0.66 0.66 1.32 1 2-1.32-0.33-2.64-0.66-4-1 0.99-0.33 1.98-0.66 3-1z" fill="#FCFDFF"/>
<path transform="translate(426,150)" d="m0 0 1 4z" fill="#000002"/>
<path transform="translate(1141,139)" d="m0 0h2c-0.33 0.99-0.66 1.98-1 3-0.33-0.99-0.66-1.98-1-3z" fill="#000002"/>
<path transform="translate(274,1)" d="m0 0 4 1z" fill="#FCFDFF"/>
</svg>
