<svg xmlns="http://www.w3.org/2000/svg" width="24" height="24" viewBox="0 0 24 24" fill="none" stroke="currentColor" stroke-width="1.5" stroke-linecap="round" stroke-linejoin="round"><path d="M19 14C20.49 12.54 22 10.79 22 8.5C22 7.04131 21.4205 5.64236 20.3891 4.61091C19.3576 3.57946 17.9587 3 16.5 3C14.74 3 13.5 3.5 12 5C10.5 3.5 9.26 3 7.5 3C6.04131 3 4.64236 3.57946 3.61091 4.61091C2.57946 5.64236 2 7.04131 2 8.5C2 10.8 3.5 12.55 5 14L12 21L19 14Z"/><path d="M12.0001 5L9.0401 7.96C8.83692 8.16171 8.67567 8.40162 8.56562 8.66593C8.45558 8.93023 8.39893 9.2137 8.39893 9.5C8.39893 9.7863 8.45558 10.0698 8.56562 10.3341C8.67567 10.5984 8.83692 10.8383 9.0401 11.04C9.8601 11.86 11.1701 11.89 12.0401 11.11L14.1101 9.21C14.629 8.73919 15.3045 8.47839 16.0051 8.47839C16.7057 8.47839 17.3813 8.73919 17.9001 9.21L20.8601 11.87"/><path d="M18 15L16 13"/><path d="M15 18L13 16"/></svg>