<svg stroke="currentcolor" xmlns="http://www.w3.org/2000/svg" width="24" height="24" viewBox="0 0 24 24" fill="none" stroke-width="1.5" stroke-linecap="round" stroke-linejoin="round"><path d="M19 3H5C3.89543 3 3 3.89543 3 5V19C3 20.1046 3.89543 21 5 21H19C20.1046 21 21 20.1046 21 19V5C21 3.89543 20.1046 3 19 3Z"/><path d="M12 13C13.6569 13 15 11.6569 15 10C15 8.34315 13.6569 7 12 7C10.3431 7 9 8.34315 9 10C9 11.6569 10.3431 13 12 13Z"/><path d="M7 21V19C7 18.4696 7.21071 17.9609 7.58579 17.5858C7.96086 17.2107 8.46957 17 9 17H15C15.5304 17 16.0391 17.2107 16.4142 17.5858C16.7893 17.9609 17 18.4696 17 19V21"/></svg>