<svg xmlns="http://www.w3.org/2000/svg" width="24" height="24" viewBox="0 0 20 20" stroke="currentcolor" fill="none"><path d="M7.5 19.5H12.5M7.5 19.5H3C2.72386 19.5 2.5 19.2761 2.5 19V9.43742M7.5 19.5V9.43742M12.5 19.5V9.43742M12.5 19.5H17C17.2761 19.5 17.5 19.2761 17.5 19V9.43742M12.5 5.43742H7.5M12.5 5.43742H18C18.2761 5.43742 18.5 5.66127 18.5 5.93742V8.93742C18.5 9.21356 18.2761 9.43742 18 9.43742H17.5M12.5 5.43742V9.43742M7.5 5.43742V9.43742M7.5 5.43742H2C1.72386 5.43742 1.5 5.66127 1.5 5.93742V8.93742C1.5 9.21356 1.72386 9.43742 2 9.43742H2.5M12.5 9.43742H17.5M2.5 9.43742H7.5M10.0376 4.36084C4.50005 4.86582 3.46773 3.36712 4.50015 1.36604C6 -0.565182 8 0.937415 10.0376 3.86084M10.146 4.36084C15.6835 4.86582 16.7159 3.36712 15.6834 1.36604C14.1836 -0.565182 12.1836 0.937415 10.146 3.86084M10 3.43741V4.93742M10 4.93742V5.43742M10 4.93742H8M10 4.93742H12"/></svg>